<svg xmlns="http://www.w3.org/2000/svg" width="240.50000000000003" height="50.31305498050447" viewBox="0 0 369.66666666666663 77.33496600606992" class="looka-1j8o68f"><defs id="SvgjsDefs1440"></defs><g id="SvgjsG1441" featurekey="v37d4h-0" transform="matrix(0.8108675654409074,0,0,0.8108675654409074,-14.837394179283391,-18.02136955749565)" fill="#ed7470"><path xmlns="http://www.w3.org/2000/svg" d="M110.38 22.37q.48-.33.89.09c14.5 15.04 11.04 38.88 1.67 55.74-8.56 15.4-22.2 28.69-38.3 35.39-24.51 10.2-54 1.04-56.34-28.73a.76.75 71.5 0 1 .33-.68zm-13.07 29.7-11.8 9.99a1.65 1.65 0 0 1-1.57.31l-11.31-3.56a.56.55 33.5 0 0-.52.1l-.32.27a.48.47-55 0 0 .14.81l2.63.95q1.56.57-.08.47-.85-.06-2.68-.46c-4.9-1.06-13.45 5.73-16.78 8.94-4.03 3.89-6.27 10.5-11.71 12.44q-3.18 1.14-6.97 1.94c-3.34.7-4.17-1.83-4.59-4.55q-.09-.6.52-.54 2.04.2 5.32-1.4c12.23-5.95 23.6-14.27 33.14-20.11 3.18-1.95 3.11-4.19 4.28-7.53q.04-.09.13-.11.18-.03.27.04t.04.29q-1.01 4.04-2.87 7.1-.38.61.33.46c3.62-.76 2.67-8.72 4.98-10.02q8.79-4.94 13.24-7.65.24-.15.31.06l.07.23a.05.05 0 0 1-.01.05l-11.22 7.95q-.11.09-.05.18l.16.23q.09.14.23.06 8.42-5 17.42-11.71.57-.42.47-.92-.11-.6-.68-.36-12.32 5.22-23.76 14.08-.4.31-.55.79-1.3 4.17-4.45 6.4-11.29 7.99-20.98 13.79-7.28 4.36-16.61 6.9c-2.27.62-2.13 5.71-1.91 7.62a1.34 1.33 17.4 0 0 .45.85q2.48 2.1 4.49 1.67 2.13-.46 12.41-5.73c2.51-1.29 4.16-4.48 6.13-7.35q4.91-7.17 13.07-10.95 6.56-3.04 13.42-.29a1.9 1.81 50.8 0 0 .96.12q1.68-.24 2.48-.27c2.46-.1 5.44-2.94 8.52-5.4q6.52-5.2 11.2-10.01 4.86-5.02-1.1-1.42-.46.28-3.27 2.53-6.63 5.33-12.84 9.77-.04.03-.05.09l-.01.25a.2.17 76.9 0 0 .27.2l11.36-7.77q.15-.11.18-.08.17.18.07.26m-1.5-9.81q-5.97 6.17-13.51 11.03-.09.06-.13.38l-.04.33q-.05.39.3.16 9.14-6.22 15.72-11.84 5.95-5.06-1.14-1.83-.92.42-3.54 1.95-1.53.9-3.35 2.27-4.26 3.21-8.77 6.16-.1.06-.03.16l.23.35q.12.17.29.06l13.84-9.33a.1.1 0 0 1 .13.15m1.37 5.34q.09.12-.03.21l-12.5 9.52q-.15.11-.04.28l.14.21.01.01q7.1-4.15 13.3-9.85.3-.27.33-.67.02-.33.19-.47 1.91-1.59 2.59-2.31 3.64-3.81-1.09-1.51-.4.2-2.68 1.89-7.12 5.27-14.24 10.52-.05.04-.01.09l.16.21q.1.13.23.04l13.44-8.42h.01z"></path><path xmlns="http://www.w3.org/2000/svg" d="m80.26 63.33-.8-.25q-.42-.13-.08-.41.13-.11.34-.08.78.12.82.52a.21.21 0 0 1-.28.22M31.9 83.52q.79 1.18 2.1 2.04.26.18.02.38l-.21.18q-.12.1-.26.04-1.99-.91-1.73-2.73a.04.03-54.2 0 1 .06-.02v.07z"></path></g><g id="SvgjsG1442" featurekey="UxBHKT-0" transform="matrix(2.881014192960163,0,0,2.881014192960163,102.71189857641093,1.9982720113313341)" fill="#ed7470"><path d="M0.1 9.04 l3.18 0 l1.84 4.88 l2.66 -5.48 l2.7 5.5 l1.9 -4.9 l3.16 0 l-4.72 11.42 l-3.04 -5.84 l-3 5.84 z M26.47 10.02 q1.03 1.22 1.03 3.48 l0 6.5 l-3.04 0 l0 -6.5 q0 -1.18 -0.59 -1.7 t-1.55 -0.52 q-0.82 0 -1.48 0.65 t-0.62 2.25 l0 5.82 l-2.98 0 l0 -15.14 l2.98 0 l0 5.12 q0.54 -0.54 1.36 -0.86 t1.58 -0.32 q2.28 0 3.31 1.22 z M38.76 18.9 q-0.38 0.52 -1.31 0.93 t-2.03 0.41 q-1.7 0 -2.95 -0.76 t-1.91 -2.07 t-0.66 -2.91 t0.66 -2.91 t1.91 -2.07 t2.95 -0.76 q1.14 0 2.01 0.39 t1.33 0.99 l0 -1.14 l2.96 0 l0 11 l-2.96 0 l0 -1.1 z M38.06 12.25 q-0.82 -0.87 -2.2 -0.87 q-1.4 0 -2.21 0.87 t-0.81 2.25 q0 1.34 0.83 2.22 t2.19 0.88 q1.4 0 2.21 -0.83 t0.81 -2.27 q0 -1.38 -0.82 -2.25 z M48.379999999999995 16.08 q0 0.7 0.24 1.17 t1.12 0.47 q0.4 0 0.76 -0.04 l0 2.52 q-0.72 0.08 -1.34 0.08 q-1.28 0 -2.07 -0.21 t-1.23 -0.81 t-0.44 -1.72 l0 -6.1 l-1.34 0 l0 -2.62 l1.34 0 l0 -2.94 l2.96 0 l0 2.94 l2.2 0 l0 2.62 l-2.2 0 l0 4.64 z M61.69 19.74 q-1.37 -0.54 -2.35 -1.83 t-0.98 -3.37 t0.99 -3.36 t2.37 -1.82 t2.62 -0.54 q1.44 0 2.74 0.64 t2.13 1.88 t0.87 2.94 q0 0.52 -0.02 0.9 t-0.04 0.48 l-8.68 0 q0.24 1.16 1.2 1.58 t1.8 0.42 q1.08 0 1.72 -0.39 t1.1 -0.89 l2.32 1.34 q-1.88 2.56 -5.14 2.56 q-1.28 0 -2.65 -0.54 z M62.3 12.05 q-0.78 0.61 -0.88 1.49 l5.5 0 q-0.06 -0.52 -0.4 -1 t-0.91 -0.79 t-1.29 -0.31 q-1.24 0 -2.02 0.61 z M80.84 18.9 q-0.38 0.52 -1.31 0.93 t-2.03 0.41 q-1.7 0 -2.95 -0.76 t-1.91 -2.07 t-0.66 -2.91 t0.66 -2.91 t1.91 -2.07 t2.95 -0.76 q1.14 0 2.01 0.39 t1.33 0.99 l0 -1.14 l2.96 0 l0 11 l-2.96 0 l0 -1.1 z M80.14 12.25 q-0.82 -0.87 -2.2 -0.87 q-1.4 0 -2.21 0.87 t-0.81 2.25 q0 1.34 0.83 2.22 t2.19 0.88 q1.4 0 2.21 -0.83 t0.81 -2.27 q0 -1.38 -0.82 -2.25 z M90.46000000000001 16.08 q0 0.7 0.24 1.17 t1.12 0.47 q0.4 0 0.76 -0.04 l0 2.52 q-0.72 0.08 -1.34 0.08 q-1.28 0 -2.07 -0.21 t-1.23 -0.81 t-0.44 -1.72 l0 -6.1 l-1.34 0 l0 -2.62 l1.34 0 l0 -2.94 l2.96 0 l0 2.94 l2.2 0 l0 2.62 l-2.2 0 l0 4.64 z"></path></g></svg>